# xmcd
#
# Track frame offsets:
#	150
#	15658
#	29062
#	43535
#	59309
#	74416
#	89357
#	105319
#	121001
#	135703
#	148406
#	164444
#	178631
#	194357
#	211826
#	233459
#	247809
#	265438
#
# Disc length: 3779 seconds
#
# Revision: 0
# Processed by: cddbd v1.5.2PL0 Copyright (c) Steve Scherf et al.
# Submitted via: EasyCDDAExtractor 16.0.6.1
#
DISCID=fc0ec112
DTITLE=Δημητριανάκης Μανώλης - Η καρδιά του μάγκα-Μ. Δημητριανάκης
DYEAR=2005
DGENRE=Ρεμπέτικη
TTITLE0=Δημητριανάκης Μανώλης - Η καρδιά του μάγκα [Γιάννη Παπαϊωάννου]
TTITLE1=Δημητριανάκης Μανώλης-Μίχου Ανθούλα - Μάγκα μου περαστικά σου [Στέλιου
TTITLE1=Χρυσίνη]
TTITLE2=Δημητριανάκης Μανώλης-Μίχου Ανθούλα - Δεν παύει πια το στόμα σου [Μάρκ
TTITLE2=ου Βαμβακάρη]
TTITLE3=Δημητριανάκης Μανώλης-Μίχου Ανθούλα - Έννοια σου, έννοια σου [Γιάννη Π
TTITLE3=απαϊωάννου]
TTITLE4=Δημητριανάκης Μανώλης - Εγώ πληρώνω τα σπασμένα (Σήκω χόρεψε)[Γιάννη Π
TTITLE4=απαϊωάννου]
TTITLE5=Δημητριανάκης Μανώλης-Μίχου Ανθούλα - Αθηναίϊσσα [Ανέστη Δελιά]
TTITLE6=Δημητριανάκης Μανώλης-Μίχου Ανθούλα - Είναι βαρύς ο πόνος σου [Γ. Τατα
TTITLE6=σσόπουλου-Ν. Ρούτσου]
TTITLE7=Δημητριανάκης Μανώλης - Τα βάσανά μου [Μάρκου Βαμβακάρη]
TTITLE8=Δημητριανάκης Μανώλης-Μίχου Ανθούλα - Τα μαλλιά τα γκρίζα [Ηλ. Ποτοσίδ
TTITLE8=η-Χρ. Κολοκοτρώνη]
TTITLE9=Δημητριανάκης Μανώλης-Μίχου Ανθούλα - Οι μπαγλαμάδες (Παίζει το μπαγ/ά
TTITLE9=κι)[Σ.Παγιουμτζή-Σ.Κηρομύτη-Κ.Καπλάνη]
TTITLE10=Δημητριανάκης Μανώλης-Μίχου Ανθούλα - Σκάλα τη σκάλα θ' ανεβώ [Απ. Χα
TTITLE10=τζηχρήστου-Χαρ. Βασιλειάδη]
TTITLE11=Μίχου Ανθούλα-Δημητριανάκης Μανώλης - Γιατί άλλαξες, γιατί [Στ. Κηρομ
TTITLE11=ύτη-Κ. Μάνεση]
TTITLE12=Δημητριανάκης Μανώλης-Μίχου Ανθούλα - Θέλω να ξέρω κούκλα μου [Μάρκου
TTITLE12=Βαμβακάρη]
TTITLE13=Δημητριανάκης Μανώλης-Μίχου Ανθούλα - Η Πειραιώτισσα [Γιάννη Παπαϊωάν
TTITLE13=νου-Κ. Μάνεση]
TTITLE14=Δημητριανάκης Μανώλης-Μίχου Ανθούλα - Ξυπνώ και βλέπω σίδερα (Τα μάντ
TTITLE14=αλα)[Βασ. Τσιτσάνη]
TTITLE15=Μίχου Ανθούλα - Δε σε θέλω πια [Γ. Δραγάτση-Μ. Φραντζεσκοπούλου]
TTITLE16=Δημητριανάκης Μανώλης-Μίχου Ανθούλα - Τα δυό σου μάτια τα γλυκά [Μάρκ
TTITLE16=ου Βαμβακάρη]
TTITLE17=Δημητριανάκης Μανώλης - Αυτούς τους αναστεναγμούς [Μάρκου Βαμβακάρη]
EXTD=
EXTT0=
EXTT1=
EXTT2=
EXTT3=
EXTT4=
EXTT5=
EXTT6=
EXTT7=
EXTT8=
EXTT9=
EXTT10=
EXTT11=
EXTT12=
EXTT13=
EXTT14=
EXTT15=
EXTT16=
EXTT17=
PLAYORDER=
